<?xml version="1.0" standalone="no"?>
<!DOCTYPE svg PUBLIC "-//W3C//DTD SVG 20010904//EN"
 "http://www.w3.org/TR/2001/REC-SVG-20010904/DTD/svg10.dtd">
<svg version="1.0" xmlns="http://www.w3.org/2000/svg"
 width="1080.000000pt" height="1080.000000pt" viewBox="0 0 1080.000000 1080.000000"
 preserveAspectRatio="xMidYMid meet">
<metadata>
Created by potrace 1.11, written by Peter Selinger 2001-2013
</metadata>
<g transform="translate(0.000000,1080.000000) scale(0.100000,-0.100000)"
fill="#000000" stroke="none">
<path d="M2698 10793 c1486 -2 3918 -2 5405 0 1486 1 270 2 -2703 2 -2973 0
-4189 -1 -2702 -2z"/>
<path d="M4065 9879 c-177 -33 -364 -76 -560 -129 -66 -18 -145 -36 -175 -40
-30 -5 -71 -13 -90 -18 -19 -6 -87 -24 -150 -40 -63 -17 -128 -35 -143 -41
-16 -6 -70 -11 -121 -11 l-92 0 -66 -68 c-47 -48 -68 -78 -73 -103 -6 -32 -20
-44 -145 -127 -76 -51 -163 -112 -193 -137 -65 -54 -386 -371 -441 -435 -21
-25 -64 -74 -97 -110 -72 -80 -88 -103 -186 -265 -144 -235 -255 -486 -308
-695 -8 -30 -22 -80 -31 -110 -9 -30 -20 -77 -25 -105 -5 -27 -14 -70 -19 -95
-25 -115 -34 -256 -34 -525 -1 -355 12 -515 66 -825 34 -198 159 -581 197
-604 5 -4 33 -11 63 -16 38 -7 59 -18 75 -37 13 -16 23 -32 23 -36 0 -4 32
-56 71 -115 54 -82 73 -121 83 -168 7 -34 31 -92 52 -129 21 -38 48 -84 60
-104 11 -20 82 -99 158 -176 76 -77 162 -169 192 -205 29 -36 78 -90 109 -120
93 -91 118 -165 182 -528 16 -93 21 -107 55 -145 32 -34 38 -48 38 -84 0 -54
-23 -66 -91 -51 -72 17 -210 16 -220 -2 -25 -47 -103 -284 -129 -395 -13 -55
-44 -113 -73 -134 -25 -18 -37 -53 -48 -135 -14 -105 -43 -124 -127 -80 -15 8
-33 14 -40 14 -7 0 -20 4 -30 9 -39 21 -241 91 -261 91 -7 0 -38 13 -69 28
-73 37 -129 44 -238 31 -293 -33 -684 -141 -921 -254 -40 -19 -96 -44 -125
-56 -29 -11 -78 -31 -108 -44 l-55 -22 -3 -1267 -2 -1266 3942 1 3943 0 -110
55 c-60 30 -127 65 -150 78 -22 13 -148 78 -280 144 -234 116 -243 120 -350
136 -60 10 -123 21 -140 26 -16 5 -59 16 -95 25 -109 28 -342 99 -445 135 -65
23 -193 73 -207 81 -10 5 -23 9 -29 9 -6 0 -25 6 -42 14 -18 7 -57 24 -87 36
-30 13 -77 33 -105 45 -27 13 -90 41 -140 63 -54 25 -93 49 -99 61 -6 15 -1
49 19 117 31 111 29 140 -13 210 -61 103 -190 351 -202 389 -17 53 -37 96 -85
180 -42 75 -64 96 -140 134 -30 15 -219 152 -274 198 l-26 22 99 93 c55 51
128 115 162 143 83 66 235 157 302 180 47 17 51 21 37 34 -10 11 -32 15 -70
13 -53 -2 -55 -1 -45 18 7 13 7 20 0 20 -5 0 -10 6 -10 14 0 8 -7 13 -16 12
-9 0 -19 5 -22 13 -3 11 0 12 14 6 69 -28 122 -45 142 -45 30 0 24 24 -8 28
-13 2 -30 10 -37 18 -8 8 -23 14 -32 14 -10 0 -24 7 -31 15 -7 8 -18 15 -24
15 -7 0 -30 8 -52 19 -21 10 -55 25 -74 34 -19 8 -66 29 -103 46 -38 17 -70
31 -73 31 -8 0 -285 130 -460 216 -95 46 -174 84 -177 84 -3 0 -35 14 -70 30
-67 31 -88 52 -182 186 -37 51 -40 54 -43 31 -5 -36 25 -130 49 -156 12 -12
51 -42 88 -65 36 -24 87 -67 114 -95 34 -37 52 -51 65 -47 27 9 57 -17 48 -40
-7 -19 -8 -19 -22 0 -13 19 -14 19 -14 -6 0 -14 7 -31 15 -38 8 -7 15 -20 15
-29 1 -14 2 -14 11 2 18 30 26 19 22 -29 -4 -51 8 -74 39 -74 16 0 18 -4 12
-22 -10 -30 -7 -60 5 -68 6 -3 12 -17 14 -30 2 -13 9 -26 15 -28 7 -2 12 -18
12 -35 0 -22 3 -28 9 -18 7 11 9 11 14 0 3 -8 6 0 7 16 1 26 2 27 9 10 5 -11
7 -33 6 -47 -2 -16 3 -29 11 -32 23 -9 17 -39 -6 -33 -25 6 -27 -19 -3 -45 16
-18 17 -17 44 14 15 18 30 30 33 27 3 -3 -3 -16 -13 -28 -11 -13 -23 -36 -26
-52 -4 -16 -11 -27 -16 -23 -5 3 -10 -1 -10 -8 -2 -18 -2 -19 6 -51 5 -20 3
-27 -7 -27 -13 0 -267 250 -353 347 -20 23 -86 92 -147 152 -123 123 -143 135
-378 229 -41 17 -109 43 -150 58 -41 15 -80 31 -85 35 -6 4 -46 17 -89 28 -90
24 -146 42 -161 52 -5 4 -28 10 -50 14 -22 3 -58 10 -80 15 -22 5 -92 19 -155
30 -63 12 -131 25 -150 30 -19 5 -69 16 -111 25 -80 18 -136 44 -146 71 -3 9
0 41 8 71 17 74 22 76 306 118 23 4 47 13 53 20 7 8 18 58 26 112 17 126 26
162 75 308 39 115 174 405 189 405 4 0 19 -11 34 -24 36 -35 140 -90 206 -111
97 -31 174 -72 216 -117 56 -58 124 -161 124 -187 0 -11 5 -21 10 -21 14 0 12
38 -4 68 -8 15 -19 47 -26 72 -7 25 -18 60 -26 78 -8 18 -14 37 -14 42 0 6
-12 34 -26 63 -14 28 -28 73 -31 100 -3 26 -8 47 -10 47 -3 0 -27 -20 -55 -45
-60 -54 -98 -63 -167 -40 -38 12 -65 32 -114 84 -67 72 -121 143 -136 183 -5
13 -22 52 -39 88 -16 36 -40 90 -53 120 -12 30 -40 80 -61 111 -48 73 -130
239 -154 315 -15 46 -19 89 -19 194 l0 135 39 63 c60 97 111 136 204 157 42
10 83 23 91 29 8 6 60 11 125 11 101 0 116 -3 167 -28 31 -15 71 -42 89 -60
33 -34 82 -137 101 -211 28 -109 47 -208 54 -273 8 -81 30 -107 41 -48 6 33 0
171 -12 273 -6 50 -5 52 18 52 35 -1 130 -59 201 -122 34 -30 76 -67 93 -81
34 -28 144 -160 144 -171 0 -4 11 -22 25 -40 14 -18 25 -36 25 -41 0 -10 139
-286 152 -302 15 -19 46 -16 57 5 9 17 24 103 56 317 9 61 20 130 25 155 10
46 56 332 65 405 3 22 17 105 30 185 13 80 31 188 40 240 8 52 22 133 31 180
9 47 28 155 43 240 l27 155 99 0 c55 -1 199 -7 320 -14 271 -17 315 -32 243
-83 -18 -12 -61 -47 -94 -78 -34 -30 -94 -75 -134 -100 -65 -41 -99 -74 -87
-86 2 -3 15 -1 28 5 13 5 51 17 84 26 33 10 69 21 80 26 54 20 94 32 135 39
25 4 83 19 130 32 47 14 98 29 114 32 27 7 113 -6 166 -24 31 -10 153 -35 245
-49 39 -7 93 -18 120 -25 28 -8 79 -22 115 -31 124 -33 175 -48 247 -72 70
-22 73 -23 108 -6 35 17 75 79 75 116 0 23 41 34 110 30 117 -7 114 -5 107
-76 -8 -89 -22 -129 -71 -200 -50 -74 -76 -143 -76 -207 0 -39 20 -86 134
-313 74 -147 138 -273 144 -280 5 -6 50 -92 100 -189 50 -97 95 -185 101 -195
5 -10 21 -43 36 -73 15 -30 35 -68 43 -85 21 -39 19 -123 -4 -170 -29 -62
-130 -142 -270 -214 -71 -37 -154 -76 -184 -87 -30 -10 -72 -28 -93 -40 -32
-18 -35 -22 -19 -26 17 -5 19 -19 25 -149 6 -159 1 -182 -51 -234 -72 -73 -68
-72 -213 -78 -100 -4 -147 -11 -184 -25 l-50 -20 170 5 c164 5 171 5 189 -16
18 -20 18 -23 3 -72 -22 -65 -99 -173 -194 -270 -74 -75 -75 -77 -65 -110 6
-19 16 -101 22 -183 7 -89 17 -161 26 -177 9 -19 14 -61 14 -128 0 -85 -4
-109 -25 -156 -77 -175 -198 -234 -434 -214 -124 10 -182 19 -301 45 -41 9
-97 20 -125 24 -27 5 -70 12 -94 16 -32 5 -42 4 -37 -4 4 -7 14 -12 22 -12 8
0 14 -4 14 -9 0 -14 86 -41 280 -88 107 -26 365 -25 470 1 41 10 89 26 106 35
51 26 149 146 168 203 20 63 20 198 1 253 -15 41 -45 284 -45 365 0 47 10 63
118 179 19 20 56 70 83 111 49 74 55 97 50 177 -2 27 6 40 47 80 87 85 87 85
87 270 0 190 -3 183 110 227 39 15 84 35 100 43 17 9 63 34 104 55 118 61 198
133 233 206 22 46 23 118 2 157 -9 17 -76 147 -149 290 -73 143 -159 310 -191
371 -33 60 -92 176 -133 257 -73 143 -74 147 -56 167 10 11 30 20 44 20 90 1
96 38 11 70 -77 29 -85 51 -42 118 74 113 84 135 100 214 18 87 28 112 42 103
17 -10 392 -87 530 -109 214 -33 305 -40 505 -40 317 0 453 31 600 138 17 12
57 35 90 51 78 37 167 110 285 232 157 161 228 253 327 423 86 147 106 183
139 250 56 116 73 156 94 226 12 38 35 114 51 169 17 55 37 120 45 144 19 61
18 115 -3 133 -10 8 -40 25 -68 38 -48 22 -57 22 -215 17 -91 -4 -237 -11
-325 -17 -88 -6 -227 -15 -310 -20 -82 -5 -199 -13 -260 -19 -60 -6 -175 -15
-255 -21 -206 -16 -340 -27 -455 -40 -68 -8 -214 -9 -455 -4 -195 4 -359 7
-364 5 -44 -11 -109 67 -285 339 -126 195 -154 235 -193 278 -54 59 -94 114
-123 167 -26 47 -99 137 -174 215 -18 19 -50 55 -70 80 -67 82 -282 284 -330
309 -14 7 -33 19 -41 26 -17 15 -210 115 -221 115 -4 0 -36 13 -71 29 -86 39
-274 111 -289 111 -19 0 -187 47 -324 90 -184 58 -286 89 -330 99 -22 5 -76
19 -119 30 -105 28 -325 28 -471 0z m432 -4641 c-3 -8 -6 -5 -6 6 -1 11 2 17
5 13 3 -3 4 -12 1 -19z m-1400 -800 c-3 -8 -6 -5 -6 6 -1 11 2 17 5 13 3 -3 4
-12 1 -19z m1443 -1549 c0 -5 -4 -9 -10 -9 -5 0 -10 7 -10 16 0 8 5 12 10 9 6
-3 10 -10 10 -16z m178 -290 c-2 -6 -8 -10 -13 -10 -5 0 -11 4 -13 10 -2 6 4
11 13 11 9 0 15 -5 13 -11z m517 -49 c-3 -5 -11 -10 -16 -10 -6 0 -7 5 -4 10
3 6 11 10 16 10 6 0 7 -4 4 -10z m-55 -10 c0 -5 -4 -10 -10 -10 -5 0 -10 5
-10 10 0 6 5 10 10 10 6 0 10 -4 10 -10z m-70 -30 c-8 -5 -17 -7 -19 -4 -3 3
1 9 9 14 8 5 17 7 19 4 3 -3 -1 -9 -9 -14z m-43 -42 c-3 -8 -6 -5 -6 6 -1 11
2 17 5 13 3 -3 4 -12 1 -19z m-347 -22 c0 -16 -26 -46 -41 -46 -16 0 -10 18
13 40 26 24 28 24 28 6z m4 -71 c6 -10 21 -29 34 -41 12 -11 22 -25 22 -30 0
-4 -5 -3 -11 3 -6 6 -17 9 -24 7 -13 -6 -38 28 -48 64 -6 27 11 25 27 -3z m56
-95 c0 -5 -4 -10 -10 -10 -5 0 -10 5 -10 10 0 6 5 10 10 10 6 0 10 -4 10 -10z"/>
<path d="M6469 6096 c-20 -20 -38 -25 -104 -30 -165 -12 -450 -58 -575 -93
-136 -38 -225 -72 -228 -86 -2 -9 9 -22 27 -32 17 -8 31 -19 31 -23 0 -18 169
-117 253 -150 95 -36 150 -43 450 -58 91 -4 97 -3 97 15 0 18 -8 20 -126 19
-69 0 -130 4 -134 9 -5 4 14 19 42 33 36 18 67 45 105 93 l55 68 46 -6 c26 -3
97 -13 158 -22 166 -24 168 -19 45 105 -90 89 -101 104 -101 136 0 45 -11 51
-41 22z m-352 -343 c-3 -2 -26 -5 -51 -5 -25 -1 -46 -5 -46 -10 0 -12 -24 -10
-54 5 -39 21 -21 27 59 20 55 -4 74 -2 80 8 7 10 10 10 13 0 2 -7 2 -15 -1
-18z"/>
<path d="M3276 5776 c-15 -13 -47 -33 -70 -45 -56 -28 -110 -80 -136 -131 -18
-35 -21 -59 -21 -144 0 -166 43 -297 135 -416 24 -30 49 -66 56 -80 24 -45 64
-90 125 -138 111 -90 159 -98 226 -43 33 28 34 30 34 108 0 69 -4 86 -34 143
-19 36 -44 78 -57 93 -63 75 -48 136 54 216 42 33 43 35 36 75 -3 22 -24 78
-45 122 -22 45 -39 85 -39 89 0 4 -15 26 -32 49 -96 121 -169 153 -232 102z
m100 -146 c27 0 72 -56 57 -71 -10 -10 -54 5 -157 49 l-39 17 29 7 c16 3 42 4
58 2 16 -2 39 -4 52 -4z m-71 -90 c22 -11 44 -19 49 -20 19 0 97 -90 100 -115
2 -14 8 -31 14 -37 7 -7 12 -15 12 -18 0 -12 -54 -33 -105 -41 -27 -4 -62 -11
-77 -14 -29 -8 -43 10 -59 70 -39 153 -41 170 -15 187 17 12 38 9 81 -12z
m155 -234 c0 -11 -19 -15 -25 -6 -3 5 1 10 9 10 9 0 16 -2 16 -4z"/>
<path d="M3406 5351 c-4 -5 -2 -12 3 -15 5 -4 12 -2 15 3 4 5 2 12 -3 15 -5 4
-12 2 -15 -3z"/>
<path d="M3486 4629 c-50 -40 -26 -128 39 -145 40 -10 95 21 96 54 2 52 -2 67
-27 90 -31 28 -73 28 -108 1z"/>
<path d="M3871 3994 c0 -11 3 -14 6 -6 3 7 2 16 -1 19 -3 4 -6 -2 -5 -13z"/>
<path d="M4415 3041 c-3 -5 -1 -12 5 -16 5 -3 10 1 10 9 0 18 -6 21 -15 7z"/>
</g>
</svg>
